# xmcd
#
# Track frame offsets:
# 150
# 15058
# 31810
# 50654
# 66253
# 82406
# 102443
# 119920
# 133748
# 146853
#
# Disc length: 2274 seconds
#
#
# Revision: 0
# Processed by: cddbd v1.5PL3 Copyright (c) Steve Scherf et al.
# Submitted via: FreeRIP 2.70 
#
DISCID=9508e00a
DTITLE=Gretchen Wilson - Here For The Party
DYEAR=2004
DGENRE=Country
TTITLE0=Here For The Party
TTITLE1=Redneck Woman
TTITLE2=When I Think About Cheatin'
TTITLE3=Homewrecker
TTITLE4=Holdin' You
TTITLE5=Chariot
TTITLE6=What Happened
TTITLE7=When It Rains
TTITLE8=The Bad
TTITLE9=Pochahontas Proud
EXTD=
EXTT0=
EXTT1=
EXTT2=
EXTT3=
EXTT4=
EXTT5=
EXTT6=
EXTT7=
EXTT8=
EXTT9=
PLAYORDER=
